<svg width="1691" height="1080" viewBox="0 0 1691 1080" fill="none" xmlns="http://www.w3.org/2000/svg">
<path opacity="0.54" d="M-7501.53 165.885C-7552.78 -86.8911 -7328.95 -331.305 -7077.73 -389.386C-6826.46 -447.574 -6564.69 -366.922 -6326.28 -268.222C-6087.83 -169.629 -5851.2 -50.5241 -5594.31 -27.4313C-5062.64 20.2577 -4591.66 -345.607 -4193.78 -701.023C-3795.9 -1056.44 -3356.5 -1444.53 -2822.76 -1455.93C-2404.3 -1464.81 -2021.53 -1236.55 -1616.15 -1132.22C-908.521 -950.045 -110.545 -1176.74 394.955 -1703.84" stroke="#159674" stroke-opacity="0.4" stroke-width="3.66238" stroke-miterlimit="10"/>
<path opacity="0.54" d="M-7503.48 235.451C-7554.89 -17.0032 -7333.3 -261.704 -7083.24 -322.323C-7060.91 -327.799 -7038.4 -332.001 -7015.88 -335.404C-6786.39 -368.968 -6549.98 -297.111 -6332.56 -209.982C-6290.57 -193.173 -6248.63 -175.726 -6206.69 -158.278C-6009.79 -76.2868 -5811.4 5.8963 -5599.84 23.7744C-5531.3 29.6196 -5463.65 28.5603 -5397.1 21.5566C-4948.11 -25.4229 -4547.87 -343.519 -4204.18 -655.336C-4179.23 -678.037 -4154.12 -700.792 -4128.85 -723.603C-3754.72 -1061.28 -3344.57 -1400.49 -2851.92 -1429.46C-2711.02 -1437.72 -2572.5 -1423.23 -2433.79 -1388.84C-2270.03 -1348.31 -2109.39 -1281.56 -1951.04 -1217.76C-1842.91 -1174.21 -1735.24 -1131.93 -1625.24 -1098.84C-1573.53 -1083.29 -1521.17 -1069.93 -1468.19 -1058.91C-1130.98 -988.637 -771.064 -1015.05 -440.207 -1124C-108.555 -1233.23 194.593 -1423.69 433.933 -1677.79" stroke="#159674" stroke-opacity="0.4" stroke-width="3.66238" stroke-miterlimit="10"/>
<path opacity="0.54" d="M-7505.44 305.032C-7557.06 52.7396 -7337.76 -192.141 -7088.85 -255.298C-7066.58 -260.933 -7044.18 -265.452 -7021.71 -269.015C-6793.11 -304.854 -6556.69 -236.031 -6338.73 -151.676C-6296.64 -135.348 -6254.71 -118.432 -6212.67 -101.465C-6015.43 -21.8196 -5816.64 58.4424 -5605.31 75.1531C-5536.83 80.5735 -5469.23 79.355 -5402.69 72.0853C-4953.77 23.351 -4555.2 -295.413 -4214.42 -609.424C-4189.68 -632.228 -4164.73 -655.194 -4139.78 -678.161C-3769.36 -1018.29 -3366 -1356.01 -2880.75 -1402.54C-2738.97 -1416.2 -2598.29 -1410.83 -2455.31 -1378.74C-2286.31 -1340.84 -2121.08 -1268.83 -1961.45 -1198.61C-1852.52 -1150.71 -1744.82 -1103.27 -1634.27 -1065.29C-1582.21 -1047.46 -1529.6 -1031.86 -1475.91 -1018.78C-1134.29 -935.426 -760.658 -959.314 -420.556 -1073.19C-79.7123 -1187.23 228.923 -1388.25 472.861 -1651.89" stroke="#159674" stroke-opacity="0.4" stroke-width="3.66238" stroke-miterlimit="10"/>
<path opacity="0.54" d="M-7507.51 374.552C-7559.29 122.582 -7342.34 -122.639 -7094.53 -188.175C-7072.41 -194.02 -7050.13 -198.857 -7027.72 -202.579C-6799.84 -240.749 -6563.52 -175.011 -6345.06 -93.3232C-6302.99 -77.5269 -6260.79 -61.1469 -6218.76 -44.7115C-6021.19 32.5876 -5822.1 110.877 -5610.9 126.472C-5542.52 131.574 -5475.04 130.038 -5408.55 122.609C-4959.88 72.1758 -4562.85 -247.204 -4224.93 -563.517C-4200.35 -586.531 -4175.72 -609.653 -4150.99 -632.722C-3784.23 -975.408 -3387.4 -1311.92 -2909.91 -1375.8C-2767.09 -1394.89 -2624.47 -1398.5 -2477.1 -1368.64C-2302.82 -1333.48 -2133.03 -1256.11 -1972.2 -1179.36C-1862.35 -1127.05 -1754.78 -1074.4 -1643.63 -1031.64C-1591.38 -1011.47 -1538.25 -993.644 -1483.95 -978.552C-1137.93 -882.113 -750.632 -903.373 -401.287 -1022.17C-51.1989 -1141.13 262.873 -1352.6 511.516 -1625.73" stroke="#159674" stroke-opacity="0.4" stroke-width="3.66238" stroke-miterlimit="10"/>
<path opacity="0.54" d="M-7509.52 444.233C-7561.4 192.477 -7346.74 -52.925 -7100.19 -121.05C-7078.08 -127.162 -7056.01 -132.102 -7033.71 -136.141C-6806.67 -176.694 -6570.39 -113.882 -6351.44 -34.8618C-6309.21 -19.653 -6267.08 -3.69775 -6224.84 12.309C-6026.93 87.2621 -5827.39 163.523 -5616.37 178.109C-5548.05 182.787 -5480.62 181.092 -5414.25 173.346C-4965.7 121.265 -4570.39 -198.943 -4235.16 -517.346C-4210.8 -540.464 -4186.33 -563.796 -4161.87 -587.128C-3798.81 -932.263 -3408.26 -1268.37 -2938.79 -1348.79C-2794.99 -1373.48 -2650.21 -1385.95 -2498.61 -1358.29C-2318.94 -1325.8 -2144.71 -1243.12 -1982.61 -1159.95C-1872 -1103.19 -1764.36 -1045.48 -1652.55 -997.781C-1600.05 -975.374 -1546.42 -955.324 -1491.44 -938.06C-1141.08 -828.433 -740.006 -847.28 -381.469 -970.886C-22.1883 -1094.66 297.371 -1316.69 550.72 -1599.3" stroke="#159674" stroke-opacity="0.4" stroke-width="3.66238" stroke-miterlimit="10"/>
<path opacity="0.54" d="M-7511.48 513.811C-7563.62 262.325 -7351.15 16.5285 -7105.81 -54.0275C-7083.86 -60.3495 -7061.79 -65.5557 -7039.55 -69.7536C-6813.34 -112.689 -6577.1 -52.8029 -6357.61 23.4425C-6315.28 38.171 -6273.05 53.6456 -6230.82 69.1204C-6032.57 141.727 -5832.64 216.067 -5621.84 229.486C-5553.63 233.846 -5486.32 231.834 -5419.84 223.873C-4971.37 170.037 -4577.78 -150.732 -4245.4 -471.436C-4221.2 -494.764 -4197.11 -518.144 -4172.81 -541.686C-3813.46 -889.27 -3429.04 -1225.55 -2967.67 -1322.03C-2822.63 -1352.33 -2676.11 -1373.61 -2520.19 -1348.35C-2335.29 -1318.49 -2156.45 -1230.55 -1992.98 -1140.91C-1881.45 -1079.74 -1773.79 -1016.87 -1661.54 -964.34C-1608.69 -939.649 -1554.81 -917.368 -1499.1 -898.039C-1144.34 -775.33 -729.608 -791.55 -361.827 -920.075C6.59047 -1048.82 331.694 -1281.25 589.747 -1573.35" stroke="#159674" stroke-opacity="0.4" stroke-width="3.66238" stroke-miterlimit="10"/>
<path opacity="0.54" d="M-7513.43 583.385C-7565.68 332.113 -7355.61 86.0847 -7111.32 13.0425C-7089.53 6.5099 -7067.47 1.03791 -7045.38 -3.37046C-6819.96 -48.5302 -6583.77 8.16435 -6363.94 81.7977C-6321.51 96.0458 -6279.24 110.882 -6236.91 125.876C-6038.37 196.244 -5838.09 268.503 -5627.42 280.807C-5559.27 284.742 -5491.96 282.463 -5425.64 274.292C-4977.31 218.808 -4585.32 -102.736 -4255.85 -425.634C-4231.86 -449.066 -4207.94 -472.656 -4183.96 -496.354C-3828.32 -846.386 -3449.76 -1183.38 -2996.82 -1295.28C-2850.58 -1331.35 -2702.23 -1361.37 -2541.97 -1338.25C-2351.78 -1311.13 -2168.4 -1217.83 -2003.71 -1121.65C-1891.38 -1056.14 -1783.69 -988.107 -1670.89 -930.685C-1617.84 -903.656 -1563.45 -879.148 -1507.02 -857.754C-1147.87 -721.964 -719.413 -735.663 -342.44 -869C35.17 -1002.56 365.761 -1245.55 628.519 -1547.13" stroke="#159674" stroke-opacity="0.4" stroke-width="3.66238" stroke-miterlimit="10"/>
<path opacity="0.54" d="M-7515.5 652.904C-7568.01 401.902 -7360.07 155.637 -7117.09 80.1126C-7095.36 73.4211 -7073.46 67.7381 -7051.38 63.0638C-6826.79 15.5212 -6590.64 69.2897 -6370.27 140.148C-6327.85 153.865 -6285.37 168.272 -6243.04 182.734C-6044.06 250.808 -5843.45 320.987 -5633.05 332.23C-5565.02 335.848 -5497.71 333.303 -5431.5 324.815C-4983.3 267.683 -4592.97 -54.5297 -4266.35 -379.729C-4242.64 -403.423 -4218.92 -427.116 -4195.16 -450.917C-3843.23 -803.398 -3470.6 -1141.8 -3025.98 -1268.54C-2878.44 -1310.58 -2728.4 -1349.04 -2563.7 -1328.26C-2368.23 -1303.88 -2180.3 -1205.21 -2014.34 -1102.62C-1901.09 -1032.7 -1793.49 -959.559 -1680.04 -897.198C-1626.63 -867.886 -1571.99 -841.145 -1514.85 -817.686C-1151.34 -668.708 -709.17 -679.886 -322.952 -818.143C63.9017 -956.622 399.928 -1210.07 667.285 -1521.18" stroke="#159674" stroke-opacity="0.4" stroke-width="3.66238" stroke-miterlimit="10"/>
<path opacity="0.54" d="M-7517.5 722.586C-7570.17 471.905 -7364.57 225.301 -7122.64 147.29C-7101.03 140.281 -7079.18 134.439 -7057.26 129.554C-6833.4 79.6806 -6597.45 130.312 -6376.48 198.555C-6333.91 211.684 -6291.44 225.559 -6249.02 239.541C-6049.69 305.269 -5848.68 373.527 -5638.52 383.603C-5570.49 386.954 -5503.4 384.04 -5437.14 375.444C-4989.12 316.506 -4600.34 -6.32299 -4276.64 -333.716C-4253.14 -357.513 -4229.59 -381.418 -4206.09 -405.481C-3857.98 -760.462 -3491.13 -1100.6 -3054.91 -1241.68C-2906.02 -1289.81 -2754.19 -1336.65 -2585.37 -1318.11C-2384.67 -1296.36 -2192.13 -1192.43 -2024.91 -1083.42C-1910.86 -1009.15 -1803.28 -930.74 -1689.28 -863.491C-1635.63 -831.948 -1580.53 -802.873 -1522.77 -777.4C-1154.87 -615.341 -699.08 -624.05 -303.563 -767.068C92.483 -910.358 434.05 -1174.47 706.059 -1494.96" stroke="#159674" stroke-opacity="0.4" stroke-width="3.66238" stroke-miterlimit="10"/>
<path opacity="0.54" d="M-7519.47 792.172C-7572.35 541.654 -7368.94 294.921 -7128.27 214.321C-7106.71 207.153 -7084.97 200.993 -7063.22 195.898C-6840.24 143.749 -6604.29 191.347 -6382.82 256.923C-6340.15 269.571 -6297.58 282.966 -6255.06 296.468C-6055.4 359.849 -5854.1 426.134 -5644.05 435.094C-5576.08 438.021 -5509.05 434.948 -5442.9 426.035C-4995.01 365.449 -4607.9 41.9515 -4286.94 -287.691C-4263.65 -311.592 -4240.37 -335.758 -4217.09 -359.925C-3872.69 -717.354 -3511.67 -1059.91 -3083.91 -1214.71C-2933.73 -1269.08 -2780.16 -1324.19 -2606.95 -1307.9C-2400.97 -1288.88 -2203.83 -1179.7 -2035.29 -1064.11C-1920.37 -985.322 -1812.83 -901.912 -1698.16 -829.724C-1644.32 -795.842 -1588.71 -764.539 -1530.22 -737.002C-1157.98 -561.754 -688.472 -567.943 -283.711 -715.879C121.527 -863.982 468.688 -1138.6 745.295 -1468.63" stroke="#159674" stroke-opacity="0.4" stroke-width="3.66238" stroke-miterlimit="10"/>
<path opacity="0.54" d="M-7521.43 861.737C-7574.45 611.54 -7373.34 364.361 -7133.93 281.437C-7112.54 274.058 -7090.96 267.688 -7069.11 262.378C-6846.85 207.898 -6611 252.412 -6389.04 315.32C-6346.38 327.436 -6303.7 340.351 -6261.08 353.372C-6061.14 414.515 -5859.33 478.665 -5649.57 486.565C-5581.71 489.174 -5514.79 485.783 -5448.65 476.603C-5000.89 414.37 -4615.43 90.2038 -4297.33 -241.74C-4274.21 -265.851 -4251.14 -290.121 -4228.18 -314.443C-3887.49 -674.321 -3532.32 -1019.82 -3112.95 -1187.92C-2961.43 -1248.64 -2806.21 -1311.81 -2628.63 -1297.76C-2417.36 -1281.47 -2215.67 -1166.93 -2045.91 -1044.81C-1930.07 -961.623 -1822.62 -873.103 -1707.4 -796.027C-1653.21 -759.862 -1597.35 -726.328 -1538.14 -696.726C-1161.5 -508.397 -678.274 -512.066 -264.269 -664.921C150.214 -817.943 502.811 -1103.01 784.124 -1442.53" stroke="#159674" stroke-opacity="0.4" stroke-width="3.66238" stroke-miterlimit="10"/>
<path opacity="0.54" d="M-7523.49 931.259C-7576.73 681.225 -7377.91 433.865 -7139.55 348.455C-7118.26 340.758 -7096.74 334.23 -7075.05 328.709C-6853.63 271.846 -6617.82 313.434 -6395.47 373.622C-6352.71 385.258 -6309.89 397.586 -6267.28 410.075C-6066.99 468.872 -5864.79 531.1 -5655.15 537.884C-5587.35 540.069 -5520.49 536.519 -5454.35 527.073C-5006.67 463.085 -4622.98 138.199 -4307.68 -195.887C-4284.77 -220.102 -4261.97 -244.634 -4239.17 -269.166C-3902.19 -631.493 -3553.09 -980.316 -3141.94 -1161.23C-2989.13 -1228.46 -2832.17 -1299.63 -2650.31 -1287.88C-2433.81 -1274.22 -2227.51 -1154.42 -2056.49 -1025.88C-1939.85 -938.341 -1832.37 -844.661 -1716.6 -762.697C-1662.21 -724.193 -1605.84 -688.432 -1545.91 -656.764C-1164.87 -455.354 -667.929 -456.502 -244.731 -614.17C178.943 -772.004 537.029 -1067.64 823.047 -1416.63" stroke="#159674" stroke-opacity="0.4" stroke-width="3.66238" stroke-miterlimit="10"/>
<path opacity="0.54" d="M-7525.5 1000.94C-7578.89 751.231 -7382.31 503.583 -7145.22 415.584C-7123.98 407.728 -7102.58 400.882 -7080.89 395.096C-6860.3 335.85 -6624.48 374.404 -6401.64 431.925C-6358.73 442.974 -6315.97 454.876 -6273.26 466.885C-6072.63 523.336 -5870.14 583.591 -5660.63 589.26C-5592.94 591.126 -5526.02 587.204 -5460.05 577.547C-5012.5 511.911 -4630.47 186.356 -4318.02 -150.031C-4295.28 -174.456 -4272.69 -199.092 -4250.22 -223.779C-3916.89 -588.662 -3574.02 -941.282 -3170.94 -1134.53C-3016.79 -1208.38 -2858.08 -1287.29 -2671.93 -1277.84C-2450.15 -1266.91 -2239.31 -1141.75 -2066.91 -1006.73C-1949.35 -914.793 -1841.9 -815.844 -1725.53 -729.1C-1670.79 -688.313 -1614.07 -650.268 -1553.52 -616.587C-1168.13 -401.989 -657.473 -400.617 -225.031 -563.204C207.887 -725.958 571.409 -1032.04 862.025 -1390.58" stroke="#159674" stroke-opacity="0.4" stroke-width="3.66238" stroke-miterlimit="10"/>
<path opacity="0.54" d="M-7527.46 1070.52C-7581.07 820.974 -7386.78 573.145 -7150.73 482.66C-7129.66 474.594 -7108.31 467.589 -7086.73 461.485C-6866.92 400.015 -6631.2 435.485 -6407.87 490.338C-6364.86 500.907 -6322.05 512.17 -6279.29 523.806C-6078.33 577.91 -5875.39 636.138 -5666.16 640.746C-5598.58 642.294 -5531.77 638.054 -5465.8 628.132C-5018.49 560.796 -4637.96 234.518 -4328.42 -104.063C-4306 -128.643 -4283.58 -153.489 -4261.32 -178.28C-3931.7 -545.611 -3595.17 -902.345 -3199.93 -1107.56C-3044.6 -1188.24 -2884.04 -1274.84 -2693.51 -1267.63C-2466.44 -1259.44 -2251.05 -1128.91 -2077.44 -987.37C-1959.12 -890.968 -1851.59 -786.965 -1734.67 -695.334C-1679.69 -652.315 -1622.56 -612.094 -1561.34 -576.241C-1171.55 -348.561 -647.175 -344.669 -205.541 -512.068C236.57 -679.633 605.579 -996.277 900.9 -1364.3" stroke="#159674" stroke-opacity="0.4" stroke-width="3.66238" stroke-miterlimit="10"/>
<path opacity="0.54" d="M-7529.52 1140.03C-7583.28 890.803 -7391.34 642.636 -7156.5 549.719C-7135.59 541.443 -7114.24 534.172 -7092.83 527.857C-6873.85 464.005 -6638.12 496.442 -6414.3 548.628C-6371.3 558.664 -6328.28 569.498 -6285.37 580.547C-6084.01 632.464 -5880.73 688.612 -5671.73 692.052C-5604.21 693.176 -5537.46 688.777 -5471.55 678.696C-5024.37 609.713 -4645.5 282.767 -4338.71 -58.0633C-4316.45 -82.8541 -4294.24 -107.804 -4272.3 -132.75C-3946.4 -502.53 -3616.27 -863.802 -3228.86 -1080.72C-3072.31 -1168.33 -2909.99 -1262.41 -2715.18 -1257.49C-2482.88 -1251.93 -2262.99 -1116.2 -2088.01 -968.184C-1968.77 -867.379 -1861.33 -758.267 -1743.75 -661.696C-1688.57 -616.339 -1630.93 -573.891 -1568.99 -535.972C-1174.81 -295.211 -636.764 -288.691 -185.886 -461.009C265.469 -633.494 639.914 -960.591 939.94 -1338.09" stroke="#159674" stroke-opacity="0.4" stroke-width="3.66238" stroke-miterlimit="10"/>
<path opacity="0.54" d="M-7531.48 1209.61C-7585.45 960.546 -7395.69 712.249 -7162.11 616.743C-7141.21 608.201 -7120.03 600.719 -7098.67 594.245C-6880.41 528.062 -6644.84 557.521 -6420.57 606.881C-6377.47 616.437 -6334.47 626.739 -6291.46 637.308C-6089.76 686.879 -5886.19 741.053 -5677.31 743.378C-5609.9 744.184 -5543.27 739.467 -5477.35 729.12C-5030.25 658.382 -4653.05 330.768 -4349.16 -12.2564C-4327.11 -37.1506 -4305.23 -62.2558 -4283.4 -87.5194C-3961.2 -459.748 -3637.8 -825.981 -3257.96 -1054.07C-3100.39 -1148.72 -2936.05 -1250.28 -2736.86 -1247.6C-2499.28 -1244.78 -2274.84 -1103.68 -2098.59 -949.248C-1978.54 -844.091 -1871.08 -729.818 -1752.95 -628.359C-1697.42 -580.719 -1639.53 -536.039 -1576.87 -496.056C-1178.34 -242.107 -626.526 -233.173 -166.456 -410.304C294.091 -587.6 674.024 -925.257 978.755 -1312.25" stroke="#159674" stroke-opacity="0.4" stroke-width="3.66238" stroke-miterlimit="10"/>
<path opacity="0.54" d="M-7533.5 1279.29C-7587.62 1030.55 -7400.16 781.804 -7167.68 683.919C-7146.94 675.166 -7125.92 667.474 -7104.56 660.734C-6887.14 592.168 -6651.61 618.702 -6426.85 665.394C-6383.6 674.362 -6340.5 684.185 -6297.49 694.221C-6095.46 741.446 -5891.44 793.592 -5682.84 794.857C-5615.49 795.238 -5548.91 790.362 -5483.11 779.698C-5036.14 707.312 -4660.59 379.028 -4359.56 33.7033C-4337.68 8.59858 -4316.01 -16.6094 -4294.5 -42.0281C-3976.02 -416.706 -3659.45 -787.951 -3287.01 -1027.27C-3128.48 -1129.12 -2962.02 -1237.83 -2758.54 -1237.45C-2515.68 -1237.36 -2286.69 -1090.91 -2109.07 -929.999C-1988.1 -820.438 -1880.78 -700.948 -1762.05 -594.709C-1706.32 -544.731 -1647.92 -497.823 -1584.65 -455.826C-1181.72 -188.796 -616.233 -177.235 -146.919 -359.284C322.872 -541.5 708.241 -889.61 1017.68 -1286.08" stroke="#159674" stroke-opacity="0.4" stroke-width="3.66238" stroke-miterlimit="10"/>
<path opacity="0.54" d="M-7535.46 1348.87C-7589.69 1100.34 -7404.62 851.369 -7173.35 751.053C-7152.67 742.141 -7131.76 734.131 -7110.46 727.232C-6893.92 656.39 -6658.33 679.784 -6433.08 723.808C-6389.73 732.297 -6346.63 741.587 -6303.53 751.143C-6101.16 796.022 -5896.74 846.247 -5688.37 846.344C-5621.13 846.408 -5554.56 841.266 -5488.76 830.335C-5041.92 756.302 -4668.03 427.35 -4369.86 79.7238C-4348.19 54.5157 -4326.79 29.0453 -4305.5 3.52324C-3990.72 -373.603 -3681.36 -750.174 -3316.01 -1000.31C-3156.57 -1109.51 -2987.97 -1225.38 -2780.27 -1227.19C-2532.18 -1229.73 -2298.58 -1078.02 -2119.75 -910.578C-1997.98 -796.666 -1890.63 -672.015 -1771.24 -560.836C-1715.16 -508.575 -1656.41 -459.384 -1592.41 -415.322C-1185.14 -135.103 -605.882 -121.129 -127.375 -307.99C351.608 -495.019 742.465 -853.688 1056.5 -1259.7" stroke="#159674" stroke-opacity="0.4" stroke-width="3.66238" stroke-miterlimit="10"/>
<path opacity="0.54" d="M-7537.52 1418.39C-7592.01 1170.13 -7409.08 920.914 -7178.96 818.06C-7158.39 808.831 -7137.53 800.662 -7116.4 793.553C-6900.59 720.38 -6665.14 740.795 -6439.4 782.152C-6396.06 790.109 -6352.7 798.863 -6309.66 807.994C-6106.95 850.528 -5902.24 898.779 -5693.89 897.812C-5626.76 897.558 -5560.24 891.991 -5494.5 880.902C-5047.85 805.062 -4675.51 475.493 -4380.25 125.673C-4358.74 100.254 -4337.55 74.6804 -4316.58 49.0032C-4005.52 -330.572 -3703.38 -712.735 -3345.04 -973.517C-3184.81 -1090.13 -3014.03 -1213 -2801.89 -1217.16C-2548.51 -1222.43 -2310.32 -1065.46 -2130.27 -891.5C-2007.63 -773.077 -1900.21 -643.371 -1780.43 -527.249C-1724.1 -472.756 -1665 -421.282 -1600.28 -375.156C-1188.5 -81.8039 -595.683 -65.2533 -107.88 -257.142C380.296 -448.982 776.641 -818.212 1095.38 -1233.71" stroke="#159674" stroke-opacity="0.4" stroke-width="3.66238" stroke-miterlimit="10"/>
<path opacity="0.54" d="M-7539.48 1487.96C-7594.07 1239.92 -7413.54 990.474 -7184.58 885.082C-7164.17 875.642 -7143.37 867.314 -7122.34 859.888C-6907.37 784.332 -6671.91 801.714 -6445.68 840.403C-6402.23 847.879 -6358.89 856.102 -6315.59 864.697C-6112.59 904.991 -5907.38 951.108 -5699.26 948.973C-5632.19 948.295 -5565.73 942.569 -5500.15 931.269C-5053.63 853.781 -4683.06 523.493 -4390.43 171.475C-4369.25 145.901 -4348.12 120.169 -4327.31 94.2808C-4019.95 -287.743 -3725.4 -675.545 -3373.77 -946.822C-3212.96 -1070.94 -3039.72 -1200.82 -2823.25 -1207.12C-2564.59 -1215.13 -2321.84 -1052.79 -2140.53 -872.408C-2016.98 -749.582 -1909.64 -614.767 -1789.31 -493.757C-1732.68 -436.874 -1673.17 -383.224 -1607.73 -335.032C-1191.55 -28.5994 -585.016 -9.52865 -88.0217 -206.229C409.398 -402.988 811.286 -782.619 1134.62 -1207.65" stroke="#159674" stroke-opacity="0.4" stroke-width="3.66238" stroke-miterlimit="10"/>
<path opacity="0.54" d="M-7541.49 1557.66C-7596.34 1309.88 -7418.05 1060.15 -7190.24 952.22C-7169.89 942.621 -7149.2 933.976 -7128.23 926.391C-6914.04 848.611 -6678.68 862.907 -6452.01 898.771C-6408.41 905.659 -6365.02 913.508 -6321.72 921.572C-6118.39 959.52 -5912.78 1003.72 -5704.89 1000.41C-5637.93 999.417 -5571.58 993.374 -5506.01 981.807C-5059.62 902.672 -4690.66 571.608 -4400.94 217.396C-4379.92 191.612 -4359.11 165.724 -4338.52 139.733C-4034.97 -244.791 -3748.12 -638.286 -3402.98 -919.953C-3241.59 -1051.58 -3065.84 -1188.31 -2845.15 -1197.06C-2581.25 -1207.7 -2333.9 -1040.11 -2151.27 -853.143C-2026.9 -725.965 -1919.55 -585.989 -1798.55 -460.04C-1741.68 -400.925 -1681.71 -344.941 -1615.65 -294.735C-1195.13 24.8859 -574.878 46.4771 -68.6392 -155.143C437.973 -356.714 845.4 -747.013 1173.39 -1181.42" stroke="#159674" stroke-opacity="0.4" stroke-width="3.66238" stroke-miterlimit="10"/>
<path opacity="0.54" d="M-7543.45 1627.23C-7598.41 1379.66 -7422.36 1129.65 -7195.81 1019.39C-7175.62 1009.58 -7154.93 1000.67 -7134.13 992.876C-6920.76 912.713 -6685.4 923.977 -6458.29 957.28C-6414.59 963.688 -6371.15 970.898 -6327.76 978.481C-6123.98 1014.13 -5918.19 1056.31 -5710.42 1051.89C-5643.52 1050.47 -5577.23 1044.26 -5511.66 1032.43C-5065.35 951.542 -4698.1 619.917 -4411.23 263.404C-4390.43 237.517 -4369.78 211.418 -4349.51 185.272C-4049.63 -201.808 -3770.79 -601.149 -3431.92 -893.104C-3270.11 -1032.46 -3091.75 -1175.98 -2866.72 -1186.86C-2597.54 -1200.24 -2345.64 -1027.28 -2161.75 -833.897C-2036.46 -702.315 -1929.24 -557.122 -1807.65 -426.393C-1750.53 -365.047 -1690.21 -306.779 -1623.43 -254.509C-1198.5 78.1936 -564.641 102.254 -49.1031 -104.126C466.753 -310.617 879.617 -711.368 1212.31 -1155.26" stroke="#159674" stroke-opacity="0.4" stroke-width="3.66238" stroke-miterlimit="10"/>
<path opacity="0.54" d="M-7545.51 1696.75C-7600.73 1449.46 -7426.93 1199.15 -7201.53 1086.36C-7181.34 1076.28 -7160.87 1067.27 -7140.18 1059.16C-6927.65 976.61 -6692.33 984.948 -6464.67 1015.48C-6420.98 1021.35 -6377.34 1028.13 -6333.95 1035.19C-6129.83 1068.49 -5923.64 1108.74 -5716.11 1103.16C-5649.32 1101.42 -5583.03 1094.95 -5517.57 1082.8C-5071.39 1000.26 -4705.75 667.862 -4421.79 309.156C-4401.15 283.057 -4380.82 256.804 -4360.77 230.554C-4064.59 -158.974 -3794.1 -564.317 -3461.18 -866.404C-3299.11 -1013.42 -3118.02 -1163.69 -2888.56 -1176.92C-2613.99 -1192.98 -2357.65 -1014.71 -2172.48 -814.908C-2046.44 -678.867 -1939.15 -528.62 -1816.89 -392.951C-1759.47 -329.215 -1698.75 -268.771 -1631.24 -214.436C-1201.92 131.348 -554.395 158.035 -29.6128 -53.2636C495.436 -264.566 913.787 -675.877 1251.08 -1129.31" stroke="#159674" stroke-opacity="0.4" stroke-width="3.66238" stroke-miterlimit="10"/>
<path opacity="0.54" d="M-7547.47 1766.33C-7602.79 1519.25 -7431.38 1268.71 -7207.04 1153.44C-7187.01 1143.15 -7166.65 1133.82 -7145.91 1125.6C-6934.1 1040.72 -6698.88 1045.97 -6470.78 1073.94C-6427 1079.34 -6383.3 1085.48 -6339.87 1092.16C-6135.47 1123.23 -5928.78 1161.34 -5721.52 1154.7C-5654.8 1152.53 -5588.67 1145.85 -5523.21 1133.44C-5077.27 1049.2 -4713.18 716.183 -4432.08 355.176C-4411.65 328.974 -4391.49 302.51 -4371.7 275.998C-4079.24 -115.979 -3817.13 -527.217 -3490.06 -839.652C-3327.89 -994.547 -3143.87 -1151.45 -2910.18 -1166.88C-2630.38 -1185.56 -2369.44 -1002.04 -2182.9 -795.759C-2055.94 -655.314 -1948.73 -499.958 -1825.93 -359.401C-1768.26 -293.434 -1707.13 -230.814 -1638.96 -174.306C-1205.29 184.666 -543.99 213.767 -10.0148 -2.34416C524.17 -218.618 948.065 -640.33 1290.06 -1103.24" stroke="#159674" stroke-opacity="0.4" stroke-width="3.66238" stroke-miterlimit="10"/>
<path opacity="0.54" d="M-7549.48 1836C-7605.07 1589.19 -7435.79 1338.42 -7212.76 1220.66C-7192.9 1210.16 -7172.54 1200.56 -7151.96 1192.13C-6941.04 1104.98 -6705.81 1107.2 -6477.27 1132.34C-6433.38 1137.26 -6389.59 1142.92 -6346.01 1149.01C-6141.27 1177.73 -5934.29 1213.87 -5727.16 1206.11C-5660.54 1203.63 -5594.42 1196.69 -5528.96 1184.01C-5083.1 1098.01 -4720.73 764.435 -4442.48 401.126C-4422.21 374.714 -4402.37 348.094 -4382.8 321.479C-4094.04 -72.9467 -3840.65 -490.234 -3519.05 -812.702C-3356.84 -975.366 -3169.72 -1138.97 -2931.75 -1156.69C-2646.67 -1178.1 -2381.17 -989.219 -2193.42 -776.412C-2065.66 -631.615 -1958.42 -471.098 -1835.07 -325.654C-1777.1 -257.296 -1715.57 -192.5 -1646.67 -133.927C-1208.6 238.126 -533.638 269.855 9.58058 48.8242C552.958 -172.262 982.341 -604.533 1329.04 -1076.93" stroke="#159674" stroke-opacity="0.4" stroke-width="3.66238" stroke-miterlimit="10"/>
<path opacity="0.54" d="M-7551.44 1905.57C-7607.13 1658.98 -7440.25 1407.97 -7218.27 1287.72C-7198.41 1276.96 -7178.27 1267.26 -7157.63 1258.45C-6947.44 1168.97 -6712.31 1168.11 -6483.28 1190.58C-6439.35 1194.86 -6395.51 1200.15 -6351.83 1205.76C-6146.75 1232.13 -5939.37 1266.35 -5732.36 1257.48C-5665.86 1254.68 -5599.79 1247.31 -5534.45 1234.57C-5088.71 1146.93 -4727.95 812.581 -4452.5 447.13C-4432.45 420.614 -4412.82 393.892 -4393.52 367.014C-4108.47 -29.8605 -3863.95 -453.142 -3547.72 -785.857C-3385.63 -956.501 -3195.41 -1126.53 -2953.06 -1146.49C-2662.69 -1170.65 -2392.64 -976.398 -2203.63 -757.171C-2074.94 -607.971 -1967.74 -442.185 -1843.78 -291.96C-1785.57 -221.371 -1723.57 -154.24 -1654.06 -93.6542C-1211.65 291.587 -522.912 325.729 29.6578 99.8314C582.228 -126.067 1017.1 -568.898 1368.51 -1050.78" stroke="#159674" stroke-opacity="0.4" stroke-width="3.66238" stroke-miterlimit="10"/>
<path opacity="0.54" d="M-7553.51 1975.1C-7609.46 1728.77 -7444.66 1477.42 -7223.99 1354.69C-7204.3 1343.72 -7184.16 1333.75 -7163.69 1324.74C-6954.33 1232.87 -6719.24 1229.08 -6489.72 1248.89C-6445.69 1252.68 -6401.7 1257.39 -6358.08 1262.57C-6152.66 1286.6 -5944.83 1318.79 -5738.1 1308.86C-5671.66 1305.63 -5605.65 1298.1 -5540.42 1285.05C-5094.81 1195.76 -4735.71 860.742 -4463.12 492.99C-4443.33 466.212 -4423.92 439.387 -4404.78 412.299C-4123.44 12.9754 -3887.96 -416.245 -3576.99 -759.156C-3415.06 -937.673 -3221.64 -1114.35 -2975.01 -1136.6C-2679.41 -1163.38 -2404.76 -963.88 -2214.48 -738.232C-2084.99 -584.679 -1977.76 -413.733 -1853.25 -258.62C-1794.79 -185.8 -1732.44 -116.386 -1662.21 -53.7352C-1215.4 344.588 -512.943 381.25 48.8193 150.54C610.633 -80.2771 1050.94 -533.561 1407.05 -1024.93" stroke="#159674" stroke-opacity="0.4" stroke-width="3.66238" stroke-miterlimit="10"/>
<path opacity="0.54" d="M-7555.47 2044.67C-7611.52 1798.56 -7449.12 1546.98 -7229.61 1421.71C-7209.97 1410.58 -7189.94 1400.3 -7169.64 1391.07C-6961.06 1296.98 -6726.07 1290.11 -6496 1307.14C-6451.87 1310.45 -6407.89 1314.62 -6364.11 1319.22C-6158.36 1340.91 -5950.24 1371.12 -5743.63 1360.07C-5677.3 1356.53 -5611.29 1348.73 -5546.06 1335.42C-5100.59 1244.48 -4743.2 908.633 -4473.41 538.738C-4453.84 511.857 -4434.6 484.82 -4415.78 457.577C-4138.15 55.8054 -3911.96 -379.35 -3605.93 -732.567C-3444.39 -919.061 -3247.49 -1102.11 -2996.58 -1126.67C-2695.7 -1156.18 -2416.45 -951.423 -2224.9 -719.088C-2094.54 -561.025 -1987.35 -385.076 -1862.18 -225.024C-1803.42 -149.813 -1740.67 -78.2237 -1669.71 -13.5076C-1218.5 397.896 -502.38 437.186 68.6262 201.557C639.632 -34.0725 1085.43 -497.917 1446.25 -998.769" stroke="#159674" stroke-opacity="0.4" stroke-width="3.66238" stroke-miterlimit="10"/>
<path opacity="0.54" d="M-7557.48 2114.36C-7613.8 1868.52 -7453.64 1616.65 -7235.23 1489.01C-7215.75 1477.66 -7195.78 1467.22 -7175.48 1457.73C-6967.73 1361.25 -6732.73 1351.35 -6502.22 1365.82C-6457.99 1368.65 -6413.86 1372.23 -6370.15 1376.41C-6164 1395.91 -5955.54 1424.04 -5749.16 1411.82C-5682.89 1407.86 -5617.04 1399.85 -5551.82 1386.27C-5106.53 1293.53 -4750.75 957.169 -4483.81 584.973C-4464.4 557.881 -4445.48 530.69 -4426.88 503.344C-4152.96 99.1234 -3936.22 -341.912 -3635.03 -705.384C-3473.87 -899.854 -3273.56 -1089.45 -3018.26 -1116.24C-2712.09 -1148.49 -2428.29 -938.371 -2235.48 -699.615C-2104.2 -537.148 -1997.09 -356.09 -1871.37 -191.15C-1812.37 -113.708 -1749.16 -39.7835 -1677.58 26.946C-1222.03 451.538 -492.137 493.242 88.0616 252.801C668.312 12.252 1119.54 -462.045 1484.96 -972.434" stroke="#159674" stroke-opacity="0.4" stroke-width="3.66238" stroke-miterlimit="10"/>
<path opacity="0.54" d="M-7559.54 2183.88C-7615.97 1938.26 -7458.1 1686.21 -7240.95 1555.97C-7221.58 1544.31 -7201.67 1533.71 -7181.53 1524.01C-6974.61 1425.15 -6739.66 1412.32 -6508.71 1423.96C-6464.44 1426.16 -6420.26 1429.37 -6376.29 1433C-6169.8 1450.15 -5960.89 1476.26 -5754.79 1462.98C-5688.63 1458.7 -5622.79 1450.43 -5557.68 1436.53C-5112.52 1342.14 -4758.35 1005 -4494.32 630.614C-4475.12 603.419 -4456.36 576.017 -4438.08 548.515C-4167.87 141.846 -3960.75 -305.014 -3664.18 -678.903C-3503.67 -881.346 -3299.73 -1077.38 -3040.15 -1106.47C-2728.76 -1141.35 -2440.35 -925.966 -2246.27 -680.789C-2114.19 -513.971 -2007.06 -327.751 -1880.84 -157.817C-1821.48 -78.0914 -1758.02 -1.93559 -1685.73 66.8589C-1225.78 504.532 -482.216 548.863 107.227 303.502C696.669 58.1415 1153.39 -426.715 1523.51 -946.589" stroke="#159674" stroke-opacity="0.4" stroke-width="3.66238" stroke-miterlimit="10"/>
<path opacity="0.54" d="M-7561.5 2253.46C-7618.07 2008.16 -7462.56 1755.77 -7246.45 1623.05C-7227.14 1611.23 -7207.45 1600.25 -7187.25 1590.44C-6981.07 1489.26 -6746.21 1473.34 -6514.82 1482.42C-6470.45 1484.14 -6426.17 1486.87 -6382.2 1489.97C-6175.38 1504.78 -5966.18 1528.92 -5760.21 1514.52C-5694.05 1509.97 -5628.43 1501.33 -5563.26 1487.32C-5118.24 1391.28 -4765.72 1053.48 -4504.44 676.842C-4485.41 649.436 -4466.97 621.879 -4448.85 594.167C-4182.3 184.942 -3984.9 -267.527 -3692.95 -651.835C-3533.09 -862.249 -3325.47 -1064.82 -3061.51 -1096.16C-2744.83 -1133.77 -2451.87 -913.028 -2256.52 -661.431C-2123.52 -490.209 -2016.53 -298.772 -1889.6 -124.006C-1830.05 -41.942 -1766.08 36.4414 -1693.06 107.301C-1228.71 558.056 -471.431 604.907 127.203 354.735C725.89 104.454 1188.15 -390.804 1562.87 -920.214" stroke="#159674" stroke-opacity="0.4" stroke-width="3.66238" stroke-miterlimit="10"/>
<path opacity="0.54" d="M-7563.46 2323.04C-7625.3 2056.04 -7437.97 1780.16 -7193.2 1656.78C-6948.47 1533.5 -6661.95 1530.2 -6388.29 1546.73C-6114.63 1563.25 -5836.62 1596.53 -5568.96 1537.79C-5091.8 1432.95 -4722.69 1051.12 -4460 639.5C-4197.16 227.827 -4009.69 -230.356 -3722.11 -625.084C-3563 -843.523 -3351.53 -1052.43 -3083.29 -1086.06C-2761.32 -1126.41 -2463.82 -900.302 -2267.15 -642.125C-2070.48 -383.948 -1931.6 -80.7391 -1700.98 147.587C-1232.29 611.53 -461.291 660.902 146.588 405.81C754.467 150.718 1222.22 -355.1 1601.64 -893.995" stroke="#159674" stroke-opacity="0.4" stroke-width="3.66238" stroke-miterlimit="10"/>
</svg>
